<svg xmlns="http://www.w3.org/2000/svg" viewBox="0 0 49.1 49.1">
    <title>
        logo
    </title>
    <polygon fill="#fff" points="49.1 11.4 49.1 21.8 21.8 49.1 19 49.1 15.2 45.3 49.1 11.4"/>
    <polygon fill="#fff" points="49.1 0 49.1 9.9 14.5 44.6 9.5 39.6 24.5 24.5 24.6 24.6 49.1 0"/>
    <polygon fill="#fff" points="18.5 29.1 14.1 33.6 0 19.6 0 10.6 18.5 29.1"/>
    <polygon fill="#fff" points="13.3 34.3 8.8 38.9 0 30.1 0 21 13.3 34.3"/>
    <polygon fill="#fff" points="23.8 23.8 19.2 28.4 0 9.2 0 0 23.8 23.8"/>
    <polygon fill="#fff" points="49.1 23.2 49.1 30.1 30.1 49.1 23.2 49.1 49.1 23.2"/>
</svg>
